<?xml version="1.0" encoding="utf-8"?>
<!-- Generator: Adobe Illustrator 27.2.0, SVG Export Plug-In . SVG Version: 6.00 Build 0)  -->
<svg version="1.1" id="圖層_1" xmlns="http://www.w3.org/2000/svg" xmlns:xlink="http://www.w3.org/1999/xlink" x="0px" y="0px"
	 viewBox="0 0 194 164" style="enable-background:new 0 0 194 164;" xml:space="preserve">
<style type="text/css">
	.st0{display:none;fill:#FFD7E3;}
	.st1{fill:#FFFFFF;}
	.st2{fill:#F0577E;}
</style>
<rect x="-319" y="-188" class="st0" width="841.9" height="595.3"/>
<path class="st1" d="M101.6,51.4c3.8-4.4,7.2-9.6,11.7-13.4c18.3-15.3,44.8-6,50.5,17.2c3.1,12.8,0,24.3-6.1,35.4
	c-8.9,16.1-21.7,28.7-35.6,40.3c-5.8,4.8-11.9,9.2-18.1,13.6c-0.9,0.6-2.9,0.8-3.7,0.3c-19.7-13.6-37.8-28.9-51-49.2
	C42.7,85.5,38.1,74.7,39,62.3c0.7-10.1,4.5-18.9,12.6-25.3c13.6-10.8,32.6-8.3,44,5.6C97.9,45.6,99.8,48.8,101.6,51.4L101.6,51.4z"
	/>
<circle class="st2" cx="65.3" cy="78.7" r="3.4"/>
<circle class="st2" cx="101.9" cy="78.7" r="3.4"/>
<path class="st2" d="M84.4,90.8c-0.5,0.6-1,0.9-1.5,1.1s-1,0.2-1.5,0.2s-0.9-0.2-1.4-0.4c-0.5-0.3-0.9-0.6-1.3-1.3
	c0.5-0.6,1-0.9,1.5-1.1s1-0.2,1.5-0.2s0.9,0.2,1.4,0.4C83.5,89.8,84,90.2,84.4,90.8z"/>
</svg>
