<?xml version="1.0" encoding="utf-8"?>
<!-- Generator: Adobe Illustrator 27.2.0, SVG Export Plug-In . SVG Version: 6.00 Build 0)  -->
<svg version="1.1" id="圖層_1" xmlns="http://www.w3.org/2000/svg" xmlns:xlink="http://www.w3.org/1999/xlink" x="0px" y="0px"
	 viewBox="0 0 24 24" style="enable-background:new 0 0 24 24;" xml:space="preserve">
<style type="text/css">
	.st0{fill:#F0577E;}
	.st1{display:none;}
	.st2{display:inline;fill:#FFFFFF;}
	.st3{display:none;fill-rule:evenodd;clip-rule:evenodd;fill:#FFFFFF;}
	.st4{fill:#FFFFFF;}
</style>
<circle class="st0" cx="12" cy="11.9" r="12"/>
<g transform="translate(3,3) scale(0.75)" class="st1">
	<path class="st2" d="M12,21.4L10.6,20C5.4,15.4,2,12.3,2,8.5C2,5.4,4.4,3,7.5,3c1.7,0,3.4,0.8,4.5,2.1C13.1,3.8,14.8,3,16.5,3
		C19.6,3,22,5.4,22,8.5c0,3.8-3.4,6.9-8.6,11.5L12,21.4z"/>
</g>
<path class="st3" d="M12,8c1.8-3.2,8-2.1,8,2.6c0,3.1-2.7,5.9-8,8.5c-5.3-2.6-8-5.4-8-8.5C4,5.9,10.2,4.8,12,8z"/>
<path class="st4" d="M15.5,6.2C14,6.2,12.7,7,12,8.2C11.3,7,10,6.2,8.5,6.2c-2.2,0-3.9,1.8-3.9,3.9c0,5.3,7.4,9,7.4,9s7.4-3.7,7.4-9
	C19.4,7.9,17.6,6.2,15.5,6.2z"/>
</svg>
