<?xml version="1.0" encoding="utf-8"?>
<!-- Generator: Adobe Illustrator 27.2.0, SVG Export Plug-In . SVG Version: 6.00 Build 0)  -->
<svg version="1.1" id="圖層_1" xmlns="http://www.w3.org/2000/svg" xmlns:xlink="http://www.w3.org/1999/xlink" x="0px" y="0px"
	 viewBox="0 0 1200 630" style="enable-background:new 0 0 1200 630;" xml:space="preserve">
<style type="text/css">
	.st0{fill:#FFD7E3;}
	.st1{fill:#F0577E;}
	.st2{display:none;}
	.st3{display:inline;fill:#F2A4B6;}
	.st4{display:inline;fill:#FFFFFF;}
	.st5{display:none;fill-rule:evenodd;clip-rule:evenodd;fill:#FFFFFF;}
	.st6{fill:#FFFFFF;}
</style>
<g id="圖層_4">
	<rect class="st0" width="1200" height="630"/>
</g>
<g>
	<g>
		<g>
			<g>
				<path class="st1" d="M1016.56,159.9v-55.91c0.23-3.32-0.58-5.85-2.38-7.41s-4.64-2.3-8.4-2.1h-55.32c-3.9,0-6.73,0.79-8.47,2.38
					c-1.48,1.36-2.19,3.29-2.09,5.73l0.39,10.84c0,21.85-2.06,37.06-6.12,45.27c-1.67,3.46-2.48,5.53-2.48,6.36
					c0,3.01,1.67,4.57,4.89,4.57c1.84,0,3.57-1.31,5.09-3.89c1.48-2.5,2.8-6.1,3.9-10.78c2.29-9.45,3.45-21.65,3.45-36.27
					l-0.1-13.34c0-2.41,1.35-3.52,4.28-3.52h50.14c3.03,0,4.48,1.22,4.48,3.77v52.98c-0.13,2.13-1.22,3.12-3.51,3.12h-5.38
					c-4.28,0-5.18,2.21-5.18,4.06c0,1.84,0.93,4.06,5.28,4.06h6.6c0.48,0.03,0.93,0.03,1.38,0.03c3.09,0,5.47-0.71,7.08-2.1
					C1016.01,166.09,1016.82,163.45,1016.56,159.9z"/>
				<path class="st1" d="M998.94,124.03h-17.97v-6.53h15.23c1.45,0,2.58-0.28,3.28-0.82c0.74-0.57,1.13-1.45,1.13-2.64
					c0-1.59-0.77-3.46-4.41-3.46h-15.23v-4.12c0-2.44-1.42-3.72-4.12-3.72c-2.83,0-4.32,1.28-4.32,3.72v4.12h-13.78
					c-3.57,0-4.32,1.87-4.32,3.46s0.74,3.46,4.32,3.46h13.78v6.53H956.5c-3.74,0-4.51,1.87-4.51,3.46s0.77,3.46,4.51,3.46h42.44
					c3.64,0,4.41-1.87,4.41-3.46C1003.35,125.9,1002.58,124.03,998.94,124.03z"/>
				<path class="st1" d="M996.53,137.62L996.53,137.62c-1.42-1.19-3.61-1.79-6.57-1.79h-25.7c-2.9-0.11-5.06,0.43-6.41,1.65
					c-1.35,1.22-2.03,3.15-2.03,5.76v10.07c-0.13,2.55,0.48,4.46,1.9,5.65c1.38,1.19,3.57,1.79,6.54,1.79h25.7
					c0.26,0.03,0.52,0.03,0.77,0.03c2.54,0,4.44-0.57,5.7-1.67c1.38-1.22,2.09-3.15,2.09-5.76v-10.07
					C998.62,140.72,997.94,138.82,996.53,137.62z M989.86,144.8v6.98c-0.13,1.42-0.87,2.07-2.35,2.07h-21
					c-1.61-0.06-2.35-0.71-2.35-2.04v-6.98c0-1.39,0.74-2.04,2.35-2.04h21C989.09,142.82,989.86,143.47,989.86,144.8z"/>
			</g>
			<g>
				<path class="st1" d="M1117.35,160.5h-1.09c-9.5,0.17-18.13,0.26-25.6,0.26l-13.98-0.09c-8.37-0.06-15.01-1.02-19.68-2.89
					c-2-0.77-3.96-2.21-5.93-4.29v-16.57c0.13-2.38-0.45-4.17-1.77-5.28s-3.48-1.65-6.44-1.65h-7.15c-1.38,0-2.45,0.28-3.12,0.82
					c-0.68,0.54-1,1.42-1,2.55c0,1.19,0.32,2.07,1,2.61c0.68,0.57,1.67,0.82,3.12,0.82h4.8c0.93,0,1.61,0.2,2.06,0.62
					c0.45,0.43,0.68,1.02,0.68,1.79v16.15l-6.79,3.06c-1.55,0.54-2.74,1.19-3.48,1.99c-0.77,0.79-1.16,1.82-1.16,2.98
					c0,2.5,1.45,3.8,4.22,3.8c2.06,0,6.12-2.36,12.46-7.15c3.16,2.67,7.18,4.63,11.98,5.85c4.12,1.05,12.49,1.62,24.83,1.73l0,0
					c6.83,0.06,17,0.09,30.21,0.09c3.96,0,5.99-1.28,5.99-3.8C1121.47,161.66,1120.05,160.5,1117.35,160.5z"/>
				<path class="st1" d="M1045.73,111.66c-4.48-1.65-7.18-2.44-8.28-2.44c-2.77,0-4.22,1.28-4.22,3.72c0,0.82,0.26,1.56,0.74,2.21
					c0.52,0.68,1.29,1.14,2.29,1.39c2.38,0.62,4.83,1.53,7.25,2.72l0,0c2.22,1.08,3.74,1.59,4.57,1.59c2.77,0,4.22-1.33,4.22-3.89
					C1052.33,115.09,1050.18,113.33,1045.73,111.66z"/>
				<path class="st1" d="M1054.56,97.89c-1.06-0.91-2.67-1.79-4.7-2.61c-5.86-2.27-7.31-2.53-7.89-2.53c-2.7,0-4.12,1.28-4.12,3.72
					c0,1.5,1.29,2.87,3.83,4l5.09,2.33c3.67,1.82,4.77,2.01,5.28,2.01c2.77,0,4.22-1.39,4.22-3.97
					C1056.26,99.85,1055.68,98.86,1054.56,97.89z"/>
				<path class="st1" d="M1112.84,121.53h-22.38v-2.13h16.62c2.25,0,3.99-0.48,5.15-1.48c1.19-0.99,1.77-2.44,1.77-4.31v-12.57
					c0-3.83-2.35-5.79-6.96-5.79h-18.87c0.77-1.22,0.9-1.65,0.9-1.87c0.06-0.88-0.26-1.56-0.97-2.07c-0.68-0.48-1.64-0.71-2.83-0.71
					c-1.87,0-3.35,1.16-4.38,3.41l-0.58,1.25h-11.85c-2.25,0-3.99,0.48-5.15,1.48c-1.19,0.99-1.77,2.44-1.77,4.31v12.57
					c0,1.87,0.61,3.32,1.84,4.31c1.22,0.96,2.93,1.48,5.12,1.48h14.17v2.13h-19.45c-4.67,0-7.05,2.07-7.05,6.13v3.97
					c0,2.1,1.29,3.21,3.74,3.21c2.51,0,3.83-1.11,3.83-3.21v-2.98c0.13-1.36,0.84-1.99,2.25-1.99h9.89c-0.32,1.16-1,2.1-2.09,2.84
					c-1.26,0.85-3.38,1.53-6.38,2.04c-2.45,0.4-2.96,1.59-2.96,2.5s0.26,1.59,0.84,1.99c0.55,0.4,1.35,0.6,2.42,0.6
					c8.47,0,13.46-3.35,14.81-9.99h8.24v4.91c0.06,1.5,0.81,2.55,2.22,3.06c1.09,0.37,2.87,0.6,5.41,0.71l3.16,0.09l3.83-0.09
					c1.55-0.06,2.83-0.6,3.9-1.59c1.06-0.96,1.58-2.36,1.58-4.12c0-1.14-0.55-2.53-3.25-2.53c-0.93,0-1.64,0.14-2.13,0.45
					c-0.52,0.31-0.84,0.85-1,1.56c-0.29,1.11-1,1.62-2.25,1.62h-2.06c-0.93,0-1.64-0.09-2.16-0.28c-0.39-0.14-0.58-0.31-0.58-0.48
					v-3.35h12.75c1.48,0.09,2.16,0.68,2.16,1.82v2.67c0,2.16,1.32,3.29,3.83,3.29c2.45,0,3.74-1.14,3.74-3.29v-3.55
					C1119.8,123.58,1117.45,121.53,1112.84,121.53z M1069.14,112.68h37.03v0.68c0,0.91-0.39,1.28-1.35,1.28h-34.17
					c-0.55-0.06-0.97-0.17-1.16-0.37c-0.23-0.2-0.32-0.48-0.32-0.91L1069.14,112.68L1069.14,112.68z M1106.18,106.46v1.87h-37.03
					v-1.87H1106.18z M1069.14,102.15v-0.85c0-0.48,0.1-0.79,0.32-0.99c0.23-0.2,0.58-0.28,1.13-0.28h34.17
					c0.68,0.06,1,0.23,1.13,0.31c0.13,0.11,0.26,0.37,0.26,0.96v0.85H1069.14z"/>
				<path class="st1" d="M1114.9,137.57h-24.73v-3.26c0-1.33-0.64-2.92-3.83-2.92c-3.25,0-3.93,1.59-3.93,2.92v3.26h-21.09
					c-2.83,0-3.45,1.42-3.45,2.61c0,1.19,0.58,2.61,3.45,2.61h14.56c-0.48,2.21-1.58,4.14-3.28,5.7c-2.25,2.07-5.57,3.58-9.92,4.46
					c-2.54,0.48-3.06,1.82-3.06,2.84c0,2.04,1.19,3.12,3.45,3.12c2.77,0,6.05-0.79,9.66-2.36c3.45-1.5,6.09-3.66,7.86-6.36h22.86
					c1.35,0,1.35,0.54,1.35,0.77c0,1.45-0.45,2.44-1.35,2.87c-0.68,0.34-2.54,0.74-7.63,0.74c-3.57,0-4.32,1.5-4.32,2.75
					c0,1.25,0.64,2.75,3.74,2.75c5.83,0,10.18-0.65,12.91-1.93c2.8-1.33,4.22-4.29,4.22-8.85c0-1.96-0.97-4.31-5.7-4.31h-23.76
					l0.52-2.21h31.46c2.93,0,3.54-1.42,3.54-2.61C1118.44,138.99,1117.83,137.57,1114.9,137.57z"/>
			</g>
		</g>
		<g>
			<g>
				<path class="st1" d="M1017.23,189.27c-1.77-1.5-4.51-2.24-8.18-2.24h-28.14v-3.69c0-2.67-1.67-4.06-4.89-4.06
					c-3.19,0-4.89,1.39-4.89,4.06v3.69h-27.05c-3.54-0.06-6.31,0.71-8.21,2.24c-1.71,1.45-2.58,3.83-2.58,7.15v5.76
					c0,3.92,2.51,4.74,4.6,4.74c2.16,0,4.7-0.82,4.7-4.74v-5.19c-0.03-1.02,0.23-1.79,0.77-2.3c0.52-0.48,1.35-0.71,2.45-0.71h61.51
					c2.32,0,3.41,0.96,3.41,3.01v5.17c0,3.92,2.45,4.74,4.51,4.74c2.09,0,4.6-0.82,4.6-4.74v-6.1
					C1019.78,192.99,1018.91,190.72,1017.23,189.27z"/>
				<path class="st1" d="M1007.15,235.11c-1.45-1.28-3.57-1.93-6.34-1.93h-48.59c-2.7,0-4.83,0.65-6.31,1.9
					c-1.48,1.28-2.22,3.15-2.22,5.59v9.05c0,2.44,0.74,4.34,2.22,5.59c1.48,1.25,3.61,1.9,6.31,1.9h48.59
					c2.77,0,4.89-0.65,6.34-1.93c1.45-1.28,2.19-3.15,2.19-5.59v-9.05C1009.31,238.26,1008.57,236.38,1007.15,235.11z
					 M1000.39,242.86v4.74c0,0.99-0.26,1.7-0.77,2.13c-0.52,0.43-1.29,0.62-2.38,0.62H955.7c-1.13,0-1.93-0.2-2.42-0.62
					c-0.48-0.4-0.71-1.14-0.71-2.13v-4.74c0-1.87,1-2.75,3.12-2.75h41.54C999.43,240.1,1000.39,240.98,1000.39,242.86z"/>
				<path class="st1" d="M1016.62,227.25c-12.49-1.7-23.09-4.09-31.49-7.01c6.12-3.06,11.11-5.96,14.88-8.63
					c2.42-1.73,4.22-3.12,5.35-4.17c1.22-1.11,1.84-2.01,1.84-2.75c0-2.58-2.19-3.89-6.57-3.89h-35.87
					c1.71-1.79,2.54-3.09,2.54-3.94c0-0.94-0.42-1.65-1.22-2.19c-0.77-0.51-1.93-0.77-3.45-0.77c-1.45,0-2.77,0.71-3.96,2.13
					c-5.02,6.07-11.79,11.41-20.13,15.84c-4.06,2.19-5.96,3.77-5.96,5.05c0,2.38,1.38,3.63,4.03,3.63c3.09,0,9.27-3.72,18.9-11.38
					c3.48,4.09,7.86,7.8,13.04,11.04c-7.92,3.09-18.29,5.76-30.85,8c-4.06,0.71-6.09,2.1-6.09,4.06c0,2.53,1.58,3.89,4.51,3.89
					c1.67,0,7.02-1.22,16.36-3.72c8.76-2.38,16.78-5.08,23.83-8.03c6.28,2.89,14.1,5.48,23.28,7.69c9.31,2.27,15.01,3.38,17.42,3.38
					c2.99,0,4.6-1.39,4.6-3.97C1021.55,229.12,1019.87,227.7,1016.62,227.25z M992.76,207.78c0,0.85-2.06,3.15-15.81,9.08
					c-5.83-2.84-10.5-6.02-13.91-9.51h29.14C992.73,207.38,992.76,207.58,992.76,207.78z"/>
			</g>
			<g>
				<path class="st1" d="M1117.41,249.24c-5.41-0.94-10.59-2.36-15.39-4.2l4.7-2.33c4.12-1.93,6.12-3.58,6.09-5.05
					c-0.03-1.08-0.42-1.9-1.16-2.41c-0.74-0.51-1.84-0.74-3.28-0.71c-1.06,0-2.19,0.43-3.35,1.22l-9.72,6.3
					c-4.09-2.24-7.82-5.05-11.08-8.37l33.14-0.48c3.64-0.06,4.38-1.9,4.35-3.43c-0.03-1.59-0.84-3.43-4.48-3.38l-35.36,0.51
					l-0.03-1.96c0.03-1.08-0.29-1.93-0.97-2.55c-0.32-0.28-0.74-0.54-1.22-0.74c2.16-1.28,3.25-3.49,3.25-6.67v-3.26
					c0.03-2.36-0.64-4.14-2-5.36c-1.42-1.25-3.57-1.9-6.41-1.9h-11.24v-3.01h19.45c1.19,0,2.16-0.26,2.9-0.77
					c0.74-0.54,1.13-1.33,1.13-2.36c0-1.42-0.71-3.12-4.03-3.12h-19.45v-3.77h16.04c3.32,0,4.03-1.7,4.03-3.12
					c0-1.02-0.39-1.82-1.13-2.36c-0.74-0.51-1.71-0.77-2.9-0.77h-16.04v-2.67c0-2.36-1.38-3.63-4.03-3.63
					c-2.7,0-4.12,1.25-4.12,3.63v2.67h-8.08c0.93-1.9,1.06-2.53,1.06-2.84c0-1.42-0.71-3.12-4.12-3.12c-2.06,0-3.54,1.08-4.38,3.18
					c-1.03,2.61-2.13,4.74-3.28,6.3c-1.74,2.24-1.93,2.95-1.93,3.29c0,1.02,0.42,1.84,1.22,2.41c0.52,0.37,1.16,0.62,1.93,0.74
					h-1.87c-3.25,0-3.93,1.7-3.93,3.12s0.68,3.12,3.93,3.12h19.45v3.01h-9.85c-5.6,0-8.44,2.44-8.44,7.24v7.49
					c0,1.33,0.39,2.41,1.13,3.21c0.77,0.79,1.84,1.19,3.19,1.19c1.93,0,4.22-0.77,4.22-4.4v-6.73c0-1.31,0.64-1.9,2.06-1.9h7.7
					v10.76c0,1.19,0.35,2.1,1.03,2.75c0.68,0.65,1.71,0.96,2.96,0.96c2.7,0,4.12-1.28,4.12-3.72V210.5h9.27
					c1.22,0,1.74,0.54,1.74,1.7v2.24c0,0.65-0.16,1.11-0.42,1.33c-0.29,0.26-0.81,0.43-1.55,0.45l-2.93,0.09
					c-1.16,0-2.06,0.28-2.64,0.88s-0.87,1.39-0.87,2.38c0,1.08,0.32,1.9,0.93,2.53c0.64,0.62,1.51,0.91,2.61,0.85l4.12-0.11
					c-0.35,0.54-0.52,1.22-0.52,2.04l0.03,1.96l-37.32,0.54c-3.64,0.06-4.38,1.93-4.35,3.52c0.03,1.53,0.84,3.35,4.48,3.32
					l30.27-0.43c-9.34,5.02-19,8.6-28.69,10.67c-3.77,0.79-5.67,2.16-5.6,4.14c0.03,2.44,1.45,3.69,4.09,3.66
					c1.45-0.03,4.8-0.99,10.27-2.92c4.89-1.7,9.34-3.43,13.14-5.14l0.13,6.39l-5.89,0.99c-4.64,0.48-6.99,1.82-6.92,3.92
					c0.03,1.19,0.35,2.1,1.03,2.72c0.55,0.51,1.26,0.77,2.13,0.74c0.26,0,0.52-0.03,0.81-0.09l13.85-2.27
					c12.82-2.44,19.64-3.86,20.9-4.29c1.64-0.6,2.48-1.65,2.45-3.12c-0.03-1.42-0.71-3.09-3.96-3.04h-0.03l-16.49,3.09l-0.16-8.94
					c2.58-1.48,5.64-3.35,9.08-5.59c7.73,8.91,17,15.3,27.6,19.07c6.73,2.36,11.33,3.49,14.1,3.43c2.77-0.03,4.19-1.48,4.15-4.12
					C1121.95,251.11,1120.44,249.75,1117.41,249.24z M1043.67,191.52h11.4v3.77h-15.39C1041,194.92,1042.32,193.7,1043.67,191.52z"
					/>
				<path class="st1" d="M1092.59,183.14c-2.7,0-4.12,1.22-4.12,3.55v24.29c0,1.25,0.35,2.16,1,2.75c0.64,0.6,1.71,0.88,3.12,0.88
					c1.35,0,2.35-0.28,3.03-0.88c0.68-0.6,1-1.5,1-2.75v-24.29C1096.61,184.36,1095.23,183.14,1092.59,183.14z"/>
				<path class="st1" d="M1115.29,215.98v-31.79c0-3.49-2.29-4.23-4.22-4.23c-1.96,0-4.32,0.74-4.32,4.23l-0.1,30.25
					c0,1.93-1,2.84-3.12,2.84h-4.38c-2.96,0-4.51,1.28-4.51,3.72c0,2.38,1.55,3.63,4.51,3.63h6.31c0.39,0.03,0.74,0.03,1.09,0.03
					c2.93,0,5.15-0.65,6.6-1.96C1114.81,221.23,1115.51,218.96,1115.29,215.98z"/>
			</g>
		</g>
	</g>
	<g>
		<path class="st1" d="M505.58,421.04c0-5.19,3.67-7.8,11.01-7.8h76.7V298.81h-62.86c-7.34,0-11.01-2.61-11.01-7.8
			c0-5.34,3.67-8,11.01-8h145.39c7.63,0,11.43,2.67,11.43,8c0,5.19-3.8,7.8-11.43,7.8h-63.95v114.43h77.77
			c7.47,0,11.24,2.61,11.24,7.8c0,5.34-3.74,8-11.24,8H516.59C509.25,429.04,505.58,426.38,505.58,421.04z"/>
		<g>
			<path class="st1" d="M771.73,276.73c0-4.97-3.38-7.44-10.14-7.44c-2.29,0-4.28,0.79-5.96,2.38c-1.64,1.59-3.06,3.97-4.22,7.12
				c-9.66,26.17-21.45,48.67-35.42,67.6c-5.06,6.58-7.57,11.12-7.57,13.51c0,5.7,2.67,8.57,7.99,8.57c2.16,0,5.28-2.47,9.4-7.44
				c3.38-4.09,7.25-9.76,11.56-17.06v89.59c0,6.36,2.9,9.51,8.63,9.51c6.18,0,9.27-3.18,9.27-9.51V312.29
				C766.25,292.08,771.73,280.22,771.73,276.73z"/>
			<path class="st1" d="M902.56,298.81c-1.8-1.25-4.35-1.9-7.66-1.9h-82.37c5.67-11.07,8.5-17.79,8.5-20.18
				c0-4.46-3.19-6.67-9.5-6.67c-4.32,0-7.57,2.47-9.72,7.44c-4.32,10.16-9.27,19.84-14.91,29.03c-5.6,9.19-11.59,17.23-17.94,24.09
				c-3.19,3.43-4.77,6.16-4.77,8.2c0,5.59,2.8,8.37,8.44,8.37c3.45,0,8.02-3.24,13.72-9.71c5.22-5.9,11.14-14.5,17.84-25.71h18.1
				v121.66c0,6.47,3.03,9.71,9.08,9.71s9.08-3.24,9.08-9.71v-35.79h50.98c6.92,0,10.37-2.47,10.37-7.44s-3.45-7.44-10.37-7.44
				h-50.98V354.6h43.63c6.76,0,10.14-2.47,10.14-7.44c0-4.97-3.38-7.44-10.14-7.44h-43.63v-27.98h54.42c3.32,0,5.86-0.62,7.66-1.9
				c1.8-1.28,2.7-3.12,2.7-5.51C905.24,301.93,904.33,300.09,902.56,298.81z"/>
		</g>
		<g>
			<path class="st1" d="M934.57,325.26v-18.65c0-6.36,1.64-11.01,4.96-13.99c3.32-2.98,8.63-4.34,15.97-4.09h63.5v-10.67
				c0-5.7,3.32-8.57,9.95-8.57c6.34,0,9.5,2.84,9.5,8.57v10.67h63.73c7.63,0,13.17,1.45,16.65,4.37c3.45,2.92,4.89,7.49,4.32,13.71
				v18.65c0,3.29-0.74,5.76-2.16,7.32c-1.45,1.59-3.67,2.38-6.7,2.38c-5.6,0-8.44-3.24-8.44-9.71v-13.91c0-5.34-3.25-8.12-9.72-8.37
				H961.56c-6.05,0-9.21,2.81-9.5,8.37v13.91c0,6.47-2.96,9.71-8.86,9.71C937.44,334.97,934.57,331.73,934.57,325.26z"/>
			<path class="st1" d="M1116.03,422.37h-78.41v-20.55h62.02c6.18,0,9.31-2.27,9.31-6.84c0-2.41-0.74-4.17-2.16-5.34
				c-1.45-1.14-3.8-1.73-7.12-1.73h-62.02v-19.47l42.76-2.04l7.12-0.2c8.79,6.98,14.62,10.47,17.49,10.47
				c5.89,0,8.86-2.47,8.86-7.44c0-1.53-1.9-3.92-5.73-7.12c-3.83-3.21-9.47-7.01-16.97-11.32l-15.13-8.74
				c-3.32-1.76-6.05-3.04-8.21-3.8c-2.16-0.77-4.09-1.14-5.83-1.14c-1.74,0-3.09,0.51-4.09,1.53c-1,1.02-1.51,2.41-1.51,4.17
				c0,0.88,0.55,1.82,1.61,2.75c1.06,0.94,2.77,2.24,5.09,3.92l8.86,6.1l-68.04,1.53l15.33-23.81h71.71c5.89,0,8.86-2.3,8.86-6.87
				c0-4.57-2.96-6.87-8.86-6.87H966.93c-5.76,0-8.63,2.3-8.63,6.87c0,4.57,2.9,6.87,8.63,6.87h32.4l-12.95,24.18l-28.95,0.4
				c-6.18,0-9.27,2.3-9.27,6.87c0,5.45,3.09,8,9.27,7.61l63.08-3.04v18.65h-61.57c-6.34,0-9.5,2.36-9.5,7.04
				c0,4.57,3.16,6.84,9.5,6.84h61.57v20.55h-77.99c-6.76,0-10.14,2.36-10.14,7.04c0,2.41,0.77,4.2,2.38,5.34
				c1.58,1.14,4.19,1.7,7.76,1.7H1116c3.61,0,6.18-0.57,7.79-1.7c1.58-1.14,2.38-2.92,2.38-5.34
				C1126.2,424.7,1122.79,422.37,1116.03,422.37z"/>
		</g>
	</g>
	<g>
		<g>
			<path class="st1" d="M546.99,102.4h-19.26c-11.4,0-17.2,5.11-17.2,15.15V200c0,10.19,6.47,15.32,19.29,15.32h17.16
				c11.4,0,17.2-5.17,17.2-15.32v-82.78C564.19,107.37,558.42,102.4,546.99,102.4z M547.8,121.96v73.87c0,2.75-1.38,4-4.54,4h-11.79
				c-3.12,0-4.51-1.22-4.51-4v-73.87c0-2.89,1.38-4.17,4.51-4.17h11.79C546.38,117.76,547.8,119.06,547.8,121.96z"/>
			<path class="st1" d="M589.95,102.77c-3.8-5.51-7.15-8.2-10.24-8.2c-2.74,0-4.73,0.65-5.93,1.9c-1.19,1.25-1.71,3.15-1.55,5.82
				l5.06,9.02c2.93,5.82,6.18,8.66,9.89,8.66c6.7,0,8.08-3.58,8.08-6.58C595.23,111.4,593.49,107.91,589.95,102.77z"/>
			<path class="st1" d="M691.54,237.97L691.54,237.97c-1.71-1.56-4.12-2.64-7.21-3.15c-10.34-1.45-20.71-4.91-30.85-10.3
				c-7.02-3.75-13.04-8.03-17.97-12.83h47.21c7.21,0,8.73-3.69,8.73-6.75c0-3.09-1.51-6.75-8.73-6.75H632.1
				c0.39-2.13,0.64-4.14,0.77-6.13c0.06-0.79,0.13-1.67,0.19-2.58h39.13c6.86,0,8.31-3.58,8.31-6.58c0-2.27-0.68-3.97-2.03-5.02
				c-1.35-1.05-3.38-1.56-6.25-1.56h-38.58c0.03-1.84,0.06-3.77,0.13-5.76c0.06-0.82,0.13-1.96,0.16-3.32h46.79
				c7.37,0,8.92-3.58,8.92-6.58c0-3.09-1.55-6.75-8.92-6.75h-25.6l5.54-18.02h23.76c7.37,0,8.92-3.77,8.92-6.95
				c0-2.16-0.77-3.89-2.35-5.11c-1.55-1.22-3.74-1.84-6.57-1.84h-36.39V95.17c0-6.36-4.28-7.69-7.89-7.69s-7.89,1.33-7.89,7.69
				v26.79h-14.04V95.17c0-6.36-4.28-7.69-7.89-7.69c-5.28,0-8.08,2.64-8.08,7.69v26.79H573.3c-7.21,0-8.73,3.77-8.73,6.95
				c0,3.18,1.51,6.95,8.73,6.95h17.29l4.03,18.02h-16.97c-7.21,0-8.73,3.69-8.73,6.75c0,3.01,1.51,6.58,8.73,6.58h40.25
				c-0.06,3.21-0.13,6.24-0.26,9.08h-34.2c-6.86,0-8.31,3.58-8.31,6.58c0,3.01,1.45,6.58,8.31,6.58h33.33
				c-0.29,2.92-0.61,5.51-0.93,7.72c-0.06,0.34-0.13,0.68-0.19,0.99h-41.51c-2.99,0-5.15,0.54-6.47,1.65
				c-1.35,1.11-2.03,2.84-2.03,5.11c0,3.09,1.48,6.75,8.5,6.75h37.23c-0.93,1.84-2,3.52-3.16,5.02c-3.77,4.74-9.15,8.6-16,11.52
				c-6.92,2.95-16.71,5.9-29.01,8.8c-3.03,0.62-5.35,1.59-6.89,2.81c-1.61,1.31-2.45,2.98-2.45,5.02c0,4.91,2.74,7.49,7.89,7.49
				c0.58,0,1.84-0.11,3.86-0.37c28.4-4.4,47.56-14.1,56.9-28.83c0.81-1.31,1.61-2.64,2.45-4.2c3.25,3.77,7.02,7.49,11.21,11.04
				c6.57,5.56,13.43,10.05,20.35,13.34c11.66,5.51,21.41,8.29,28.95,8.29c5.7,0,8.73-2.78,8.73-8.03
				C694.15,241.46,693.28,239.59,691.54,237.97z M642.79,135.84l-4.19,18.02h-26.95l-4.22-18.02H642.79z"/>
			<path class="st1" d="M672.19,94.2c-1.61,0-3.32,0.71-5.22,2.19c-1.8,1.39-3.51,3.43-5.06,6.04c-4.73,7.66-5.28,9.62-5.28,10.39
				c0,2.92,1.48,6.41,8.5,6.41c3.67,0,7.12-2.58,10.47-7.83c4.73-7.04,5.31-9.31,5.31-10.42C680.92,97.89,679.4,94.2,672.19,94.2z"
				/>
		</g>
		<g>
			<path class="st1" d="M750.6,143.7c-10.56-4.48-17.13-6.64-20.03-6.64c-6.5,0-9.95,2.98-9.95,8.6c0,1.82,1.26,3.63,3.74,5.42
				c2.32,1.67,6.05,3.58,11.05,5.65l5.76,2.36c4.44,2.16,7.54,3.18,9.5,3.18c6.12,0,9.34-3.09,9.34-8.97
				C759.97,149.49,756.82,146.25,750.6,143.7z"/>
			<path class="st1" d="M752.5,182.86c-2.45,0-4.51,0.74-6.12,2.24c-1.55,1.42-2.9,3.58-4.03,6.47
				c-5.89,15.72-12.43,30.59-19.42,44.27c-1.45,2.92-2.13,5.05-2.13,6.5c0,3.75,1.8,8.23,10.37,8.23c3.48,0,6.38-1.65,8.6-4.94
				c2.09-3.35,6.25-12.49,12.69-28.01c6.44-15.44,9.56-24.35,9.56-27.24C762.03,186.92,760.39,182.86,752.5,182.86z"/>
			<path class="st1" d="M757.04,96.47c-7.92-3.86-13.36-5.73-16.55-5.73c-6.38,0-9.76,2.89-9.76,8.43c0,3.49,4.35,7.18,13.3,11.24
				l5.57,2.55c4.57,2.53,7.7,3.75,9.53,3.75c6.38,0,9.76-3.09,9.76-8.97C768.86,104.11,765,100.45,757.04,96.47z"/>
			<path class="st1" d="M892.93,233.97c-12.69-4.43-23.64-10.39-32.59-17.74c36.16-16.97,40.38-22.7,40.38-25.51
				c0-5.62-3.22-8.6-9.34-8.6c-2.29,0-4.57,0.94-6.76,2.75c-8.73,6.64-20.03,13.74-33.59,21.09c-3.35-4.12-6.09-8.12-8.15-11.89
				c-2-3.66-3.45-7.52-4.32-11.52h31.88c7.54,0,12.78-1.5,15.55-4.48c3.28-3.52,4.96-8.29,4.96-14.16v-38.11
				c0-5.51-1.67-10.07-4.96-13.62c-2.9-2.95-8.15-4.46-15.55-4.46H841.7v-11.3c0-8.17-5.18-9.88-9.53-9.88
				c-4.25,0-9.34,1.7-9.34,9.88v11.3h-25.83c-6.67-0.14-12.14,1.36-16.42,4.48c-3.28,3.52-4.96,8.09-4.96,13.62v107.39l-8.47,1.87
				c-7.83,1.79-11.82,4.68-11.82,8.57c0,7.27,4.86,8.77,8.92,8.77c3.57,0,13.91-2.7,31.53-8.26c19.42-6.16,30.66-10.13,34.29-12.09
				c2.9-1.48,4.35-3.72,4.35-6.67c0-2.5-0.71-4.43-2.09-5.79c-1.45-1.42-3.57-1.93-6.38-1.5l-2.42,0.4l-30.3,9.68v-45.66h28.66
				c4.03,22.56,17.74,41.18,40.8,55.31c16.17,9.9,27.31,14.73,34.01,14.73c6.25,0,9.53-3.09,9.53-8.97
				C906.3,240.19,901.92,237.04,892.93,233.97z M793.3,137.79v-9.31c-0.06-2.24,0.52-3.94,1.74-5.02c1.22-1.14,3.22-1.67,5.93-1.67
				h64.6c2.45-0.06,4.28,0.45,5.51,1.48c1.29,1.11,1.93,2.87,1.93,5.25v9.28H793.3L793.3,137.79z M793.3,151.7h79.64v10.42
				c0.13,2.24-0.42,3.92-1.58,4.99c-1.22,1.11-3.19,1.67-5.86,1.67h-72.2L793.3,151.7L793.3,151.7z"/>
		</g>
	</g>
</g>
<g class="st2">
	<path class="st3" d="M615.22,292.9c0-0.91-0.47-1.4-1.37-1.4h-1.13c0.18-0.59,0.31-1.17,0.4-1.75c0.04-0.31-0.01-0.56-0.15-0.73
		c-0.14-0.16-0.36-0.24-0.67-0.24c-0.22,0-0.4,0.06-0.54,0.17c-0.15,0.12-0.23,0.29-0.26,0.52c-0.12,0.86-0.21,1.54-0.3,2.03h-0.77
		c-0.44,0-0.78,0.12-1.01,0.36s-0.35,0.59-0.35,1.04v9.49c0,0.45,0.12,0.79,0.35,1.03c0.24,0.24,0.59,0.35,1.03,0.35h3.39
		c0.91,0,1.38-0.48,1.38-1.38L615.22,292.9z M610.66,296.65v-3.23c0-0.31,0.14-0.45,0.45-0.45h2.12c0.31,0,0.45,0.14,0.45,0.45v3.23
		H610.66z M613.66,298.09v3.77c0,0.31-0.14,0.45-0.45,0.45h-2.12c-0.31,0-0.45-0.14-0.45-0.45v-3.77H613.66z"/>
	<path class="st3" d="M622.21,291.45h-3.83c0.08-0.16,0.16-0.36,0.25-0.61c0.11-0.32,0.21-0.64,0.29-0.96
		c0.03-0.14,0.06-0.27,0.06-0.39c0-0.37-0.2-0.61-0.59-0.7c-0.12-0.02-0.2-0.03-0.26-0.03c-0.19,0-0.35,0.07-0.49,0.18
		c-0.13,0.12-0.22,0.28-0.29,0.49c-0.24,0.91-0.5,1.73-0.78,2.46c-0.22,0.59-0.57,1.34-1.02,2.2c-0.1,0.17-0.15,0.34-0.15,0.5
		c0,0.26,0.13,0.47,0.39,0.61c0.14,0.07,0.27,0.12,0.4,0.12c0.27,0,0.49-0.15,0.68-0.43c0.47-0.74,0.81-1.41,1.01-1.99h3.64
		c0.56,0,0.63,0.3,0.63,0.53c0,1.58-0.04,3.27-0.13,5.04c-0.09,1.75-0.21,2.86-0.36,3.3c-0.08,0.23-0.19,0.4-0.31,0.48
		c-0.13,0.09-0.33,0.15-0.59,0.17c-0.28,0.02-0.76,0.04-1.44,0.04c-0.72,0-0.87,0.43-0.87,0.79c0,0.26,0.08,0.47,0.24,0.59
		c0.15,0.12,0.4,0.2,0.73,0.21c0.18,0.01,0.45,0.02,0.77,0.02c0.84,0,1.48-0.09,1.91-0.27c0.44-0.19,0.76-0.53,0.97-1.02
		c0.27-0.67,0.46-1.99,0.58-3.92c0.11-1.94,0.16-3.97,0.16-6.06C623.78,292.18,623.51,291.45,622.21,291.45z"/>
	<path class="st3" d="M619.05,296.97c-0.31-0.47-0.58-0.79-0.78-1c-0.22-0.21-0.44-0.33-0.64-0.33s-0.38,0.07-0.5,0.19
		c-0.13,0.12-0.2,0.3-0.2,0.52c0,0.09,0.02,0.2,0.07,0.32s0.1,0.22,0.15,0.3l0.24,0.36c0.4,0.63,0.73,1.14,0.93,1.51
		c0.14,0.27,0.28,0.47,0.42,0.6c0.15,0.15,0.33,0.22,0.54,0.22c0.24,0,0.43-0.07,0.56-0.2c0.14-0.13,0.21-0.3,0.21-0.53
		C620.04,298.61,619.72,297.96,619.05,296.97z"/>
</g>
<g id="圖層_3">
	<g transform="translate(3,3) scale(0.75)" class="st2">
		<path class="st4" d="M285.25,192.97l-14.68-13.33c-52.13-47.23-86.5-78.42-86.5-116.69c0-31.19,24.47-55.66,55.66-55.66
			c17.63,0,34.49,8.2,45.52,21.17c11.03-12.97,27.95-21.17,45.52-21.17c31.19,0,55.66,24.47,55.66,55.66
			c0,38.27-34.38,69.46-86.5,116.81L285.25,192.97z"/>
	</g>
	<path class="st5" d="M216.92,36.29c18.22-32.61,80.84-21.23,80.84,25.89c0,31.43-26.95,60.14-80.84,86.15
		c-53.89-26-80.84-54.72-80.84-86.15C136.14,15.06,198.7,3.68,216.92,36.29z"/>
	<g>
		<ellipse class="st1" cx="234.79" cy="250.33" rx="193.82" ry="193.82"/>
		<path class="st6" d="M290.57,156.93c-24.18,0-45.17,13.56-55.84,33.49c-10.67-19.93-31.66-33.49-55.84-33.49
			c-34.91,0-63.27,28.3-63.27,63.27c0,85.56,119.05,145.11,119.05,145.11s119.05-59.56,119.05-145.11
			C353.84,185.23,325.54,156.93,290.57,156.93z"/>
	</g>
</g>
<g>
	<path class="st6" d="M50.09,564.54c0-0.62,0.23-1.49,0.7-2.62c1.34-3.45,2.09-7.6,2.24-12.44c0.1-2.22,0.98-3.32,2.63-3.32
		s2.47,0.93,2.47,2.78c0,2.68-0.46,6.34-1.39,10.97c-0.93,4.74-2.24,7.11-3.94,7.11C50.99,567.01,50.09,566.19,50.09,564.54z
		 M72.8,540.82l-1.85,0.31l-17.77,1.85c-0.98,0.11-1.72-0.11-2.24-0.65c-0.52-0.54-0.77-1.3-0.77-2.28c0-1.6,0.93-2.47,2.78-2.62
		l3.56-0.16l5.33-7.96h-0.15c-2.99-2.73-5.8-5.02-8.42-6.88c-1.6-1.13-2.39-2.16-2.39-3.09c0-1.8,0.95-2.7,2.86-2.7
		c0.72,0,1.65,0.46,2.78,1.39c2.37-4.33,4.07-7.85,5.1-10.58c0.77-2.11,1.93-3.17,3.48-3.17c2.01,0,3.01,0.93,3.01,2.78
		c0,2.06-2.58,6.67-7.73,13.83l4.4,3.71l4.56-8.04c0.51-0.88,1.02-1.52,1.5-1.93c0.49-0.41,1.07-0.62,1.74-0.62
		c1.96,0,2.94,0.9,2.94,2.71c0,0.46-0.37,1.36-1.12,2.7c-0.75,1.34-2,3.35-3.75,6.03c-2.83,4.33-5.59,8.17-8.27,11.51l-0.08,0.07
		l0.85-0.07l8.11-0.39l0.31-0.07l-1.08-3.09l-0.16-1.08c-0.1-0.67,0.04-1.18,0.43-1.55c0.39-0.36,0.97-0.54,1.74-0.54
		c0.46,0,1.02,0.44,1.66,1.32c0.64,0.88,1.28,2.16,1.89,3.86c1.39,3.61,2.09,5.69,2.09,6.26c0,1.7-0.88,2.55-2.63,2.55
		C74.37,544.22,73.47,543.09,72.8,540.82z M61.91,571.57V540.9l5.72-0.62v31.29c0,2.16-0.95,3.24-2.86,3.24
		C62.86,574.81,61.91,573.73,61.91,571.57z M71.8,556.35c-0.36-3.19-0.67-5.2-0.93-6.03c-0.15-0.56-0.23-1.18-0.23-1.85
		c0-1.44,0.82-2.16,2.47-2.16c1.24,0,2.01,0.88,2.32,2.62l1.54,7.26l0.31,2.47c0.1,0.83-0.09,1.46-0.58,1.89
		c-0.49,0.44-1.17,0.66-2.05,0.66C73.16,561.22,72.21,559.59,71.8,556.35z M74.04,566.39c0-0.77,0.67-1.83,2.01-3.17
		c2.99-2.99,5.31-6.51,6.95-10.58c0.77-1.96,1.78-2.94,3.01-2.94c0.93,0,1.59,0.19,2.01,0.58c0.41,0.39,0.62,0.99,0.62,1.82
		c0,1.65-1.52,4.92-4.56,9.81c-2.99,4.79-5.41,7.18-7.26,7.18C74.97,569.1,74.04,568.19,74.04,566.39z M78.06,530.73
		c-0.46-0.49-0.7-1.25-0.7-2.28v-7.88c-0.21-2.57,0.28-4.45,1.47-5.64c1.18-1.18,3.06-1.67,5.64-1.47h10.12v-5.41
		c0-2.37,1.08-3.55,3.24-3.55c2.11,0,3.17,1.18,3.17,3.55v5.41h10.97c2.57-0.2,4.45,0.28,5.64,1.47c1.18,1.19,1.67,3.07,1.47,5.64
		v7.8c0,2.06-0.98,3.09-2.94,3.09c-1.96,0-2.94-1.03-2.94-3.09v-6.34c0-2.06-1.03-3.06-3.09-3.01H86.25c-2.06,0-3.07,1-3.01,3.01
		v6.41c0,2.01-0.98,3.01-2.94,3.01C79.27,531.47,78.52,531.22,78.06,530.73z M79.53,542.21c0-1.85,1.16-2.78,3.48-2.78h33.38
		c2.32,0,3.48,0.93,3.48,2.78s-1.16,2.78-3.48,2.78H83C80.68,544.99,79.53,544.06,79.53,542.21z M85.24,529.15
		c0-1.85,1.08-2.78,3.24-2.78h19.39c1.08,0,1.88,0.22,2.4,0.66c0.51,0.44,0.77,1.14,0.77,2.12c0,1.86-1.06,2.78-3.17,2.78H88.49
		C86.32,531.93,85.24,531.01,85.24,529.15z M86.94,571.03c0-2.01,1.03-3.01,3.09-3.01h2.78c1.65,0,2.52-0.88,2.63-2.62v-21.71h5.72
		v22.79c0,2.73-0.59,4.72-1.78,5.95c-1.19,1.24-3.12,1.78-5.79,1.62h-3.56C87.97,574.04,86.94,573.04,86.94,571.03z M111.05,561.22
		c-3.14-4.74-4.71-7.73-4.71-8.96c0-1.44,0.9-2.16,2.7-2.16c0.56,0,1.17,0.3,1.81,0.89c0.64,0.59,1.28,1.46,1.89,2.59
		c1.18,2.16,2.83,4.51,4.94,7.03c1.96,2.27,2.94,3.81,2.94,4.64c0,2.01-0.98,3.01-2.94,3.01
		C116.35,568.25,114.14,565.9,111.05,561.22z"/>
	<path class="st6" d="M130.21,534.29c-0.46-0.54-0.7-1.4-0.7-2.59c0-1.23,0.44-2.06,1.31-2.47l5.41-2.78
		c9.07-4.64,16.92-11.05,23.57-19.24c1.49-1.9,3.04-2.86,4.64-2.86c1.13,0,1.97,0.19,2.51,0.58c0.54,0.39,0.81,0.99,0.81,1.81
		c0,0.21-0.13,0.65-0.39,1.31l0.7,0.7c3.55,3.56,7.7,6.88,12.44,9.97c4.79,3.14,10.09,5.77,15.92,7.88
		c2.16,0.77,3.25,1.96,3.25,3.55c0,2.47-1.11,3.71-3.32,3.71c-2.78,0-7.6-2.34-14.45-7.03c-7.26-4.95-13.21-9.73-17.85-14.37
		c-2.68,3.15-6.28,6.57-10.82,10.28c-4.17,3.45-8.42,6.39-12.75,8.81c-4.22,2.37-6.9,3.55-8.03,3.55
		C131.42,535.1,130.67,534.83,130.21,534.29z M137.7,563.46v-11.28c0-3.04,0.66-5.26,1.97-6.65c1.31-1.39,3.46-1.98,6.45-1.78h36.86
		c3.04-0.21,5.27,0.39,6.68,1.78c1.42,1.39,2.02,3.61,1.81,6.65v11.28c0.41,5.97-2.42,8.78-8.5,8.42h-36.86
		C140.2,572.24,137.4,569.43,137.7,563.46z M143.34,532.4c0-1.9,1.06-2.86,3.17-2.86h36.47c2.16,0,3.25,0.95,3.25,2.86
		c0,1.85-1.08,2.78-3.25,2.78h-36.47C144.4,535.18,143.34,534.25,143.34,532.4z M184.91,561.91v-8.19c0-2.78-1.39-4.17-4.17-4.17
		h-32.3c-2.78,0-4.17,1.39-4.17,4.17v8.19c0,2.78,1.39,4.17,4.17,4.17h32.3C183.52,566.08,184.91,564.69,184.91,561.91z"/>
	<path class="st6" d="M225.48,542.36v-7.42c-1.91,1.9-4.46,3.91-7.65,6.02c-3.71,2.47-6.05,3.71-7.03,3.71
		c-0.83,0-1.47-0.25-1.93-0.74c-0.46-0.49-0.7-1.17-0.7-2.05c0-1.13,0.8-2.08,2.39-2.86c4.43-2.16,8.63-4.76,12.59-7.8h-6.03
		c-1.75,0-3.09-0.45-4.02-1.35c-0.93-0.9-1.39-2.23-1.39-3.98v-3.32c0-1.75,0.46-3.09,1.39-4.02c0.93-0.93,2.27-1.39,4.02-1.39h8.34
		v-3.01h-14.06c-1.85,0-2.78-0.82-2.78-2.47c0-1.7,0.93-2.55,2.78-2.55h14.06v-2.78c0-1.65,0.88-2.47,2.63-2.47
		c1.8,0,2.7,0.83,2.7,2.47v2.78h13.68c1.9,0,2.86,0.85,2.86,2.55c0,1.65-0.95,2.47-2.86,2.47h-13.68v3.01h7.96
		c1.75,0,3.08,0.48,3.98,1.43c0.9,0.95,1.35,2.33,1.35,4.14v2.78c0,3.71-1.7,5.61-5.1,5.72h-8.19v2.24c0.62-0.46,1.26-0.7,1.93-0.7
		c0.98,0,3.04,0.77,6.18,2.32c3.25,1.6,4.87,2.91,4.87,3.94c0,1.81-0.95,2.71-2.86,2.71c-0.72,0-1.73-0.41-3.01-1.24
		c-1.08-0.72-3.22-1.93-6.41-3.63l-0.7-0.54v6.03c0,1.8-0.9,2.7-2.7,2.7C226.35,545.07,225.48,544.17,225.48,542.36z M209.1,571.84
		c-0.46-0.44-0.7-1.12-0.7-2.04c0-1.75,1-2.63,3.01-2.63H221v-9.89c0-2.42,1.03-3.63,3.09-3.63c1.96,0,2.94,1.21,2.94,3.63v9.89
		h14.83v-16.07h-26.89c-1.96,0-2.94-0.88-2.94-2.63c0-1.75,0.98-2.63,2.94-2.63h57.25c1.96,0,2.94,0.88,2.94,2.63
		c0,1.75-0.98,2.63-2.94,2.63h-24.42v5.49h20.24c1.9,0,2.86,0.85,2.86,2.55c0,1.65-0.95,2.47-2.86,2.47h-20.24v5.56h28.2
		c0.98,0,1.72,0.23,2.24,0.7c0.51,0.46,0.77,1.11,0.77,1.93c0,0.93-0.25,1.61-0.73,2.04c-0.49,0.44-1.25,0.66-2.28,0.66h-64.59
		C210.33,572.5,209.56,572.28,209.1,571.84z M225.48,526.68v-4.87h-6.64c-0.57,0-0.99,0.13-1.28,0.39c-0.28,0.26-0.45,0.67-0.5,1.23
		v1.62c0,0.98,0.59,1.52,1.78,1.62H225.48z M238.3,526.29c0.26-0.26,0.41-0.67,0.46-1.23v-1.62c0-1.08-0.57-1.62-1.7-1.62h-6.26
		v4.87h6.26C237.63,526.68,238.04,526.55,238.3,526.29z M269.29,542.67c-3.76-1.96-6.57-3.73-8.42-5.33
		c-2.63,2.11-5.38,3.91-8.27,5.41c-2.83,1.5-4.84,2.24-6.03,2.24c-0.93,0-1.61-0.21-2.05-0.62c-0.44-0.41-0.66-1.11-0.66-2.08
		c0-0.83,0.23-1.39,0.7-1.7c0.36-0.26,1.91-0.95,4.64-2.09c2.89-1.23,5.54-2.86,7.96-4.87c-2.63-3.09-4.51-6.64-5.64-10.66
		l-0.7,1.08c-1.8,2.78-3.27,4.17-4.4,4.17c-1.6,0-2.42-0.87-2.47-2.62c0-0.83,0.49-1.83,1.47-3.01c2.94-3.4,5.48-8.32,7.65-14.76
		c0.82-2.47,1.98-3.71,3.48-3.71c1.91,0,2.86,0.88,2.86,2.62c0,1.08-0.77,3.01-2.32,5.79l-0.77,1.7h19.55
		c1.96,0,2.94,0.88,2.94,2.63c0,1.8-0.98,2.7-2.94,2.7h-3.79c-1.65,5.56-4.04,10.2-7.19,13.91c3.71,2.57,7.34,4.43,10.9,5.56
		c2.16,0.67,3.25,1.73,3.25,3.17c0,2.11-0.98,3.17-2.94,3.17C275,545.37,272.74,544.48,269.29,542.67z M266.43,519.57h-10.97
		c1.03,4.33,2.83,7.85,5.41,10.58C263.7,526.7,265.55,523.18,266.43,519.57z"/>
	<path class="st6" d="M287.52,562.99c0-1.75,1.29-2.96,3.86-3.63l6.41-1.7v-20.7h-5.49c-2.42,0-3.63-0.95-3.63-2.86
		c0-1.95,1.21-2.94,3.63-2.94h5.49v-16.69h-6.49c-2.37,0-3.55-0.95-3.55-2.86c0-2.01,1.18-3.01,3.55-3.01h18.39
		c2.37,0,3.56,1,3.56,3.01c0,1.91-1.19,2.86-3.56,2.86h-5.64v16.69h4.64c2.42,0,3.63,0.98,3.63,2.94c0,1.91-1.21,2.86-3.63,2.86
		h-4.64v19.08l6.64-1.86c1.8,0,2.7,0.98,2.7,2.94c0,1.24-0.46,2.11-1.39,2.63l-10.43,3.56c-2.94,0.98-5.38,1.72-7.34,2.24
		c-1.96,0.52-3.14,0.77-3.55,0.77C288.58,566.32,287.52,565.21,287.52,562.99z M305.52,569.4c0-1.9,1.16-2.86,3.48-2.86h22.41
		v-10.35h-14.14c-2.32,0-3.48-0.95-3.48-2.86c0-1.9,1.16-2.86,3.48-2.86h14.14v-8.27h-8.96c-5.15,0.41-7.52-1.98-7.11-7.18v-20.48
		c-0.41-5.2,1.96-7.6,7.11-7.18h24.73c5.2-0.41,7.6,1.98,7.18,7.18v20.48c0.41,5.15-1.98,7.55-7.18,7.18h-9.43v8.27h14.29
		c2.27,0,3.4,0.95,3.4,2.86c0,1.91-1.13,2.86-3.4,2.86h-14.29v10.35h16.84c2.37,0,3.56,0.95,3.56,2.86c0,1.91-1.19,2.86-3.56,2.86
		H309C306.68,572.27,305.52,571.31,305.52,569.4z M331.48,521.66v-8.73h-7.03c-2.06,0-3.06,1-3.01,3.01v5.72H331.48z M331.48,536.64
		v-9.43h-10.04v6.49c0,2.01,1,2.99,3.01,2.94H331.48z M348.17,521.66v-5.72c0-2.06-0.98-3.06-2.94-3.01h-7.49v8.73H348.17z
		 M348.17,533.71v-6.49h-10.43v9.43h7.49C347.24,536.64,348.22,535.67,348.17,533.71z"/>
	<path class="st6" d="M397.85,544.22c-0.98-1.03-1.47-2.29-1.47-3.79c0-1.23,0.57-2.5,1.7-3.78c0.98-1.13,2.29-1.7,3.94-1.7
		s2.96,0.56,3.94,1.7c1.03,1.13,1.55,2.42,1.55,3.86c0,1.5-0.54,2.78-1.62,3.86c-1.14,1.14-2.45,1.7-3.94,1.7
		C400.3,546.07,398.93,545.45,397.85,544.22z"/>
	<path class="st6" d="M446.37,538.73v-6.72c0-1.5,0.32-2.66,0.97-3.48c0.64-0.83,1.58-1.29,2.82-1.39v-14.68
		c0-3.81,1.93-5.72,5.79-5.72h12.05c3.86,0,5.79,1.91,5.79,5.72v14.68c1.19,0.1,2.13,0.56,2.82,1.39c0.7,0.82,1.07,1.98,1.12,3.48
		v5.41c0,2.06-0.85,3.09-2.55,3.09c-1.7,0-2.55-1.03-2.55-3.09v-3.01c0-1.29-0.64-1.93-1.93-1.93h-17.23
		c-1.29,0-1.96,0.64-2.01,1.93v4.33c0,2.01-0.85,3.01-2.55,3.01S446.37,540.74,446.37,538.73z M452.59,573.89
		c-0.49-0.51-0.73-1.29-0.73-2.32v-29.52c0-3.66,1.88-5.49,5.64-5.49h9.73c3.71,0,5.56,1.83,5.56,5.49v25.73
		c0,2.21-0.51,3.87-1.54,4.98c-1.03,1.11-2.63,1.66-4.79,1.66h-2.63c-0.93,0-1.62-0.22-2.09-0.65c-0.46-0.44-0.7-1.12-0.7-2.05
		c0-1.86,0.9-2.78,2.7-2.78h1.31c0.72,0,1.29-0.21,1.7-0.62c0.41-0.41,0.62-1,0.62-1.78v-5.17h-9.97v10.2
		c0,2.06-0.93,3.09-2.78,3.09C453.76,574.66,453.08,574.4,452.59,573.89z M459.2,527.07v-5.56c0-3.14,1.55-4.71,4.64-4.71h5.1v-2.55
		c0-1.29-0.67-1.96-2.01-2.01h-9.73c-1.29,0-1.98,0.7-2.09,2.09v12.75H459.2z M467.39,546.69v-3.01c0-1.34-0.67-2.01-2.01-2.01
		h-5.95c-1.34,0-2.01,0.67-2.01,2.01v3.01H467.39z M467.39,556.43v-4.79h-9.97v4.79H467.39z M468.93,527.07v-5.41H466
		c-1.24,0-1.85,0.59-1.85,1.78v3.63H468.93z M474.5,570.8c0-1.7,0.85-2.55,2.55-2.55h9.12l-1.39-5.95c-1.8,0-3.19-0.4-4.17-1.2
		c-0.98-0.8-1.47-1.97-1.47-3.51v-4.95c0-1.6,0.45-2.82,1.35-3.67c0.9-0.85,2.23-1.27,3.98-1.27h22.64c3.6,0,5.41,1.6,5.41,4.79
		v4.87c0,3.3-1.88,4.95-5.64,4.95l-1.31,5.95h8.27c1.7,0,2.55,0.85,2.55,2.55c0,1.7-0.85,2.55-2.55,2.55h-36.78
		C475.35,573.34,474.5,572.5,474.5,570.8z M477.97,543.56c-0.46-0.44-0.7-1.04-0.7-1.81c0-1.7,0.9-2.55,2.7-2.55h33.92
		c1.65,0,2.47,0.85,2.47,2.55c0,1.65-0.83,2.47-2.47,2.47h-33.92C479.11,544.22,478.44,544,477.97,543.56z M479.64,534.17
		c-1-0.98-1.43-2.55-1.28-4.71v-12.52c0-2.27,0.49-3.91,1.47-4.95c0.98-1.03,2.55-1.47,4.71-1.31h4.02v-3.86
		c0-0.88,0.19-1.51,0.58-1.89c0.39-0.39,0.97-0.58,1.74-0.58c1.59,0,2.39,0.83,2.39,2.47v3.86h5.18v-3.86c0-1.65,0.8-2.47,2.39-2.47
		c1.55,0,2.32,0.83,2.32,2.47v3.86h4.48c2.27,0,3.9,0.49,4.91,1.47c1,0.98,1.46,2.58,1.35,4.79v12.52c0,2.22-0.5,3.84-1.51,4.87
		c-1,1.03-2.59,1.47-4.75,1.31h-23.1C482.27,535.64,480.64,535.15,479.64,534.17z M488.64,520.88v-5.25h-3.17
		c-1.08,0-1.67,0.59-1.78,1.78v3.48H488.64z M488.64,530.77v-5.49h-4.95V529c0,1.13,0.59,1.72,1.78,1.78H488.64z M506.79,555.96
		v-1.93c0-1.13-0.57-1.72-1.7-1.78h-18.54c-1.13,0-1.7,0.6-1.7,1.78v1.93c0,1.08,0.57,1.67,1.7,1.78h18.54
		C506.12,557.74,506.69,557.15,506.79,555.96z M500.3,568.25l1.08-5.72v-0.23h-11.28l1.24,5.41l0.08,0.54H500.3z M498.53,520.88
		v-5.25h-5.33v5.25H498.53z M498.53,530.77v-5.49h-5.33v5.49H498.53z M508.49,520.88v-3.48c0-1.18-0.59-1.78-1.78-1.78h-3.63v5.25
		H508.49z M508.49,529v-3.71h-5.41v5.49h3.63C507.9,530.77,508.49,530.18,508.49,529z"/>
	<path class="st6" d="M524.72,564.61l0.85-4.56l0.7-5.95c0.2-2.11,1.03-3.17,2.47-3.17c1.55,0,2.32,0.75,2.32,2.24l-0.85,10.2
		c-0.21,2.42-1.13,3.63-2.78,3.63C525.62,567.01,524.72,566.21,524.72,564.61z M539.87,571.18c0-2.06,1.11-3.09,3.32-3.09
		c2.88,0,4.71-1.21,5.49-3.63c0.51-1.6,0.9-3.99,1.16-7.19l0.54-8.27c0.05-1.23-0.67-1.85-2.16-1.85h-14.37
		c-4.02,0-6.03-1.98-6.03-5.95v-28.05c0-4.07,2.01-6.1,6.03-6.1h19.47c2.06,0,3.09,0.9,3.09,2.7c0,0.93-0.25,1.61-0.73,2.05
		c-0.49,0.44-1.28,0.65-2.36,0.65h-7.65v6.34h6.03c1.91,0,2.86,0.88,2.86,2.62c0,0.83-0.25,1.46-0.73,1.89
		c-0.49,0.44-1.2,0.66-2.13,0.66h-6.03v6.26h6.03c1.91,0,2.86,0.88,2.86,2.63c0,0.83-0.25,1.46-0.73,1.89
		c-0.49,0.44-1.2,0.66-2.13,0.66h-6.03v6.57h4.64c3.56,0,5.33,1.73,5.33,5.18l-0.15,3.24c-0.21,4.64-0.58,8.59-1.12,11.86
		c-0.54,3.27-1.12,5.68-1.74,7.22c-1.34,3.19-4.48,4.79-9.43,4.79C540.97,574.28,539.87,573.24,539.87,571.18z M533.14,559.59
		l-0.7-6.49c-0.16-1.29,0.51-1.93,2.01-1.93c0.62,0,1.14,0.27,1.58,0.81s0.71,1.3,0.81,2.28l1.24,7.57l0.08,0.69
		c0,1.44-0.83,2.16-2.47,2.16C534.25,564.69,533.4,562.99,533.14,559.59z M540.48,518.8v-6.34h-5.1c-1.5,0-2.24,0.72-2.24,2.16v4.17
		H540.48z M540.48,530.23v-6.26h-7.34v6.26H540.48z M540.48,541.98v-6.57h-7.34v4.48c0,1.28,0.75,1.98,2.24,2.08H540.48z
		 M540.48,561.29l-2.24-9.12c-0.1-0.52,0.05-0.94,0.46-1.28c0.41-0.33,0.98-0.5,1.7-0.5c1.08,0,2.01,1.34,2.78,4.02l1.55,5.95
		c0,1.44-0.72,2.16-2.16,2.16C541.64,562.53,540.95,562.12,540.48,561.29z M545.81,556.73l-1.62-5.49c0-0.51,0.17-0.93,0.5-1.23
		c0.33-0.31,0.78-0.46,1.35-0.46c1.03,0,1.83,0.88,2.4,2.63l0.77,2.01l1.47,4.33c-0.77,1.08-1.54,1.62-2.32,1.62
		C547.38,560.13,546.54,559,545.81,556.73z M553.23,529.08c0-0.93,0.75-1.98,2.24-3.17c7.01-5.51,11.77-11.9,14.29-19.16
		c0.67-1.8,1.8-2.7,3.4-2.7c1.9,0,2.86,0.69,2.86,2.08l-0.31,1.16c5.31,8.04,11.13,13.73,17.46,17.07c1.6,0.83,2.4,1.93,2.4,3.32
		c0,2.22-1.06,3.33-3.17,3.33c-1.7,0-4.63-1.91-8.81-5.72l0.23-0.15c0.52,0.62,0.77,1.26,0.77,1.93c0,1.85-1.11,2.78-3.32,2.78
		h-14.53c-2.22,0-3.32-0.93-3.32-2.78c0-0.88,0.28-1.56,0.85-2.05c0.57-0.49,1.39-0.74,2.47-0.74h14.53c0.93,0,1.62,0.16,2.09,0.46
		l-0.15,0.23c-3.56-3.14-6.88-7.37-9.97-12.67c-2.68,5-5.9,9.63-9.66,13.9c-3.45,3.92-5.95,5.87-7.5,5.87
		C554.18,532.09,553.23,531.08,553.23,529.08z M554.39,569.95c0-0.36,0.19-0.8,0.58-1.31s1.02-1.26,1.89-2.24
		c3.3-3.56,5.36-7.99,6.18-13.29l4.95,0.08l-1.08,4.94c4.53,2.78,6.8,4.89,6.8,6.34c0,1.75-0.88,2.62-2.63,2.62
		c-0.57,0-1.26-0.36-2.09-1.08l-3.48-3.48l-0.15-0.07c-3.09,6.74-5.85,10.12-8.27,10.12C555.29,572.57,554.39,571.7,554.39,569.95z
		 M563.12,554.57c-1.96,0-3.41-0.45-4.36-1.36c-0.95-0.9-1.43-2.28-1.43-4.13v-9.43c0-3.66,1.83-5.49,5.49-5.49h4.71
		c1.8,0,3.17,0.46,4.09,1.39c0.93,0.93,1.39,2.29,1.39,4.1v9.43c0,3.61-1.67,5.41-5.02,5.41c-0.36,0-0.95-0.05-1.78-0.16l-1.78,0.16
		L563.12,554.57z M567.99,547.54v-6.34c0-1.24-0.59-1.88-1.78-1.93h-2.09c-1.19,0-1.78,0.64-1.78,1.93v6.34
		c0,1.13,0.59,1.75,1.78,1.85h2.09C567.39,549.39,567.99,548.77,567.99,547.54z M570.46,570.95c0-0.93,0.64-1.88,1.93-2.86
		c4.95-3.81,7.67-8.81,8.19-14.99l4.87,0.08c-0.2,2.42-0.64,4.68-1.31,6.8c6.95,4.79,10.43,8.27,10.43,10.43
		c0,1.96-1.06,2.94-3.17,2.94c-1.08,0-3.43-2.19-7.03-6.57l-2.24-2.32c-3.61,6.18-6.59,9.27-8.96,9.27
		C571.36,573.73,570.46,572.81,570.46,570.95z M580.66,554.49c-3.5,0-5.25-1.8-5.25-5.41v-9.43c0-3.66,1.78-5.49,5.33-5.49h5.41
		c3.66,0,5.49,1.83,5.49,5.49v9.43c0,3.66-1.83,5.49-5.49,5.49h-2.09l-2.09-0.16C581.66,554.47,581.23,554.49,580.66,554.49z
		 M586.38,547.54v-6.34c0-1.18-0.62-1.83-1.85-1.93h-2.24c-1.19,0-1.83,0.64-1.93,1.93v6.34c0,1.13,0.64,1.75,1.93,1.85h2.24
		C585.76,549.39,586.38,548.77,586.38,547.54z"/>
	<path class="st6" d="M608.94,570.76c-1.44-1.42-2.16-3.75-2.16-6.99v-46.75c0-3.19,0.7-5.51,2.12-6.95
		c1.42-1.44,3.75-2.16,6.99-2.16h46.82c3.19,0,5.51,0.71,6.95,2.12c1.44,1.42,2.16,3.75,2.16,6.99v46.75c0,3.19-0.71,5.51-2.13,6.95
		c-1.42,1.44-3.75,2.16-6.99,2.16h-46.82C612.7,572.88,610.38,572.17,608.94,570.76z M665.34,561.91V518.8
		c0-3.04-1.52-4.56-4.56-4.56h-42.96c-3.04,0-4.56,1.52-4.56,4.56v43.11c0,3.04,1.52,4.56,4.56,4.56h42.96
		C663.82,566.47,665.34,564.95,665.34,561.91z M624.04,554.38c-1.31-1.26-1.89-3.26-1.74-5.99v-16.84c0-2.78,0.63-4.83,1.89-6.14
		c1.26-1.31,3.28-1.89,6.07-1.74h17.85c2.83,0,4.91,0.63,6.22,1.89c1.31,1.26,1.89,3.26,1.74,5.99v17.15c0,5.3-2.65,7.83-7.96,7.57
		h-17.85C627.43,556.27,625.36,555.64,624.04,554.38z M649.89,546.77v-13.6c0-2.32-1.16-3.48-3.48-3.48h-14.37
		c-2.32,0-3.48,1.16-3.48,3.48v13.6c0,2.32,1.16,3.47,3.48,3.47h14.37C648.73,550.24,649.89,549.09,649.89,546.77z"/>
	<path class="st6" d="M683.11,524.98c0-1.08,0.59-2.14,1.78-3.17c4.22-3.71,8.01-8.78,11.36-15.22c1.03-2.01,2.16-3.01,3.4-3.01
		c0.98,0,1.75,0.27,2.32,0.81c0.56,0.54,0.85,1.2,0.85,1.97c0,0.31-0.18,0.8-0.54,1.47c3.91,3.09,6.8,5.51,8.66,7.26
		c1.85,1.75,2.78,2.94,2.78,3.56c0,1.9-0.98,2.86-2.94,2.86c-0.88,0-1.85-0.67-2.94-2.01l-7.8-7.57c-1.5,2.78-3.66,5.87-6.49,9.27
		c-3.81,4.58-6.44,6.88-7.88,6.88C683.96,528.07,683.11,527.04,683.11,524.98z M688.21,571.8v-37.71c0-3.91,1.96-5.87,5.87-5.87
		h10.66c4.07,0,6.11,2.01,6.11,6.03v11.36c0,1.96-0.52,3.45-1.55,4.48c-1.03,1.03-2.55,1.55-4.56,1.55h-10.97v4.4h14.76
		c1.75,0,2.62,0.8,2.62,2.39c0,1.65-0.88,2.47-2.62,2.47h-14.76v4.02h14.22c1.75,0,2.62,0.82,2.62,2.47c0,1.59-0.88,2.39-2.62,2.39
		h-14.22v2.01c0,2.01-0.93,3.01-2.78,3.01C689.14,574.81,688.21,573.81,688.21,571.8z M692.46,521.66l1.08-1.08
		c0.77-0.21,4.71-0.31,11.82-0.31c2.01,0,3.01,0.8,3.01,2.39c0,1.6-1,2.39-3.01,2.39h-10.05
		C693.11,525.06,692.15,523.92,692.46,521.66z M705.29,537.49v-2.62c0-1.29-0.64-1.96-1.93-2.01h-7.65c-1.29,0-1.93,0.67-1.93,2.01
		v2.62H705.29z M705.29,544.99v-2.86h-11.51v4.79h9.58C704.64,546.92,705.29,546.28,705.29,544.99z M709.23,571.95
		c0-0.72,0.25-1.32,0.74-1.81c0.49-0.49,1.2-0.81,2.12-0.97c3.91-0.72,7.5-1.93,10.74-3.63c1.03-0.51,1.75-0.77,2.17-0.77
		c1.8,0,2.7,0.9,2.7,2.7c0,1.44-2.34,3.01-7.03,4.72c-4.33,1.6-7.24,2.39-8.73,2.39C710.13,574.58,709.23,573.71,709.23,571.95z
		 M711.54,530.47c0-1.65,0.88-2.47,2.63-2.47h36.86c1.8,0,2.7,0.83,2.7,2.47c0,1.6-0.9,2.39-2.7,2.39h-36.86
		C712.42,532.86,711.54,532.06,711.54,530.47z M729.55,524.21h-8.66c-2.16,0-3.75-0.46-4.75-1.39c-1-0.93-1.48-2.39-1.43-4.4v-3.32
		c0-2.06,0.49-3.57,1.47-4.52c0.98-0.95,2.55-1.4,4.71-1.35h8.66v-2.55c0-1.8,0.87-2.7,2.62-2.7c1.8,0,2.71,0.9,2.71,2.7v2.55h9.19
		c2.16,0,3.75,0.48,4.75,1.43c1,0.95,1.48,2.43,1.43,4.44v3.32c0,2.11-0.49,3.64-1.47,4.6c-0.98,0.95-2.55,1.35-4.71,1.2h-9.19v5.1
		h-5.33V524.21z M714.94,558.2v-16.38c0-3.76,1.91-5.64,5.72-5.64h23.64c3.81,0,5.72,1.88,5.72,5.64v16.38
		c0,3.76-1.91,5.64-5.72,5.64h-23.64C716.85,563.84,714.94,561.96,714.94,558.2z M729.55,519.57v-5.64h-7.34
		c-1.24,0-1.86,0.62-1.86,1.85v1.93c0,1.23,0.62,1.85,1.86,1.85H729.55z M744.07,544.06v-1.55c0-1.34-0.67-2.01-2.01-2.01h-19.39
		c-1.34,0-2.01,0.67-2.01,2.01v1.55H744.07z M744.07,551.71v-3.55h-23.41v3.55H744.07z M744.07,557.43v-1.62h-23.41v1.62
		c0,1.34,0.67,2.01,2.01,2.01h19.39C743.4,559.44,744.07,558.77,744.07,557.43z M744.54,517.72v-1.93c0-1.13-0.62-1.75-1.85-1.85
		h-7.8v5.64h7.8C743.92,519.57,744.54,518.95,744.54,517.72z M741.83,571.72c-3.81-1.7-5.72-3.14-5.72-4.33
		c0-1.75,0.9-2.63,2.71-2.63c0.36,0,1.16,0.28,2.39,0.85c2.73,1.29,5.72,2.24,8.96,2.86c2.37,0.41,3.55,1.42,3.55,3.01
		c0,1.85-1.08,2.78-3.24,2.78C748.43,574.28,745.54,573.42,741.83,571.72z"/>
	<path class="st6" d="M793.45,544.22c-0.98-1.03-1.47-2.29-1.47-3.79c0-1.23,0.56-2.5,1.7-3.78c0.98-1.13,2.29-1.7,3.94-1.7
		s2.96,0.56,3.94,1.7c1.03,1.13,1.55,2.42,1.55,3.86c0,1.5-0.54,2.78-1.62,3.86c-1.13,1.14-2.45,1.7-3.94,1.7
		C795.89,546.07,794.53,545.45,793.45,544.22z"/>
	<path class="st6" d="M841.27,520.73c0-1.91,1.11-2.86,3.33-2.86h20.78c2.27,0,3.4,0.95,3.4,2.86c0,1.9-1.13,2.86-3.4,2.86h-20.78
		C842.38,523.59,841.27,522.63,841.27,520.73z M844.05,510.3c0-1.9,1.13-2.86,3.4-2.86h15.3c2.32,0,3.48,0.95,3.48,2.86
		c0,1.9-1.16,2.86-3.48,2.86h-15.3C845.18,513.16,844.05,512.2,844.05,510.3z M844.28,531.01c0-1.86,1.08-2.78,3.25-2.78h14.99
		c1.08,0,1.92,0.25,2.51,0.74c0.59,0.49,0.89,1.17,0.89,2.05c0,0.88-0.3,1.56-0.89,2.05c-0.59,0.49-1.43,0.73-2.51,0.73h-14.99
		C845.36,533.79,844.28,532.86,844.28,531.01z M844.28,541.13c0-1.85,1.08-2.78,3.25-2.78h14.99c2.27,0,3.4,0.93,3.4,2.78
		c0,0.88-0.3,1.56-0.89,2.05c-0.59,0.49-1.43,0.73-2.51,0.73h-14.99C845.36,543.91,844.28,542.98,844.28,541.13z M844.36,565.54
		v-10.82c0-4.07,2.09-6.1,6.26-6.1h9.12c4.22,0,6.34,2.04,6.34,6.1v10.67c0,4.12-2.11,6.18-6.34,6.18h-9.12
		C846.45,571.57,844.36,569.56,844.36,565.54z M860.2,564.23v-8.34c0-1.34-0.7-2.01-2.09-2.01h-5.95c-0.62,0-1.11,0.17-1.47,0.5
		c-0.36,0.33-0.54,0.84-0.54,1.51v8.34c0,0.67,0.18,1.18,0.54,1.55c0.36,0.36,0.85,0.54,1.47,0.54h5.95
		C859.5,566.32,860.2,565.62,860.2,564.23z M868.39,548.39c-0.56-0.51-0.85-1.23-0.85-2.16c0-1.96,1.16-2.94,3.48-2.94h16.92v5.87
		h-16.92C869.83,549.16,868.96,548.91,868.39,548.39z M869.31,510.76c0-1.96,1.16-2.94,3.48-2.94h33.84c2.37,0,3.56,0.98,3.56,2.94
		c0,1.96-1.18,2.94-3.56,2.94h-33.84C870.47,513.7,869.31,512.72,869.31,510.76z M872.79,537.88c-1.55,0-2.42-0.9-2.62-2.71
		c-0.16-0.62,0.15-1.55,0.93-2.78c2.47-3.97,4.43-7.93,5.87-11.9c0.26-0.77,0.64-1.34,1.16-1.7c0.51-0.36,1.21-0.54,2.09-0.54
		c1.5,0,2.34,0.77,2.55,2.32c0.16,1.44-1,4.69-3.48,9.73c-2.47,4.84-4.38,7.34-5.72,7.5C873.36,537.86,873.1,537.88,872.79,537.88z
		 M886.47,571.03V511.3h6.26v59.72c0,1.24-0.26,2.14-0.77,2.71c-0.51,0.56-1.31,0.85-2.39,0.85
		C887.5,574.58,886.47,573.4,886.47,571.03z M891.33,543.29h16.77c2.37,0,3.56,0.98,3.56,2.94c0,1.96-1.18,2.94-3.56,2.94h-16.77
		V543.29z M900.22,529.92c-2.78-4.74-4.09-7.7-3.94-8.89c0.21-1.6,1.08-2.39,2.63-2.39c1.34,0,2.45,0.93,3.32,2.78
		c0.41,0.98,0.94,1.99,1.58,3.01c0.64,1.03,1.09,1.75,1.35,2.16c1.24,1.9,2.37,3.55,3.4,4.95c0.93,1.28,1.32,2.34,1.16,3.17
		c-0.16,1.96-1.26,2.83-3.32,2.63C905.11,537.19,903.05,534.71,900.22,529.92z"/>
	<path class="st6" d="M920.43,543.64c-0.44-0.44-0.65-1.17-0.65-2.2c0-0.87,0.51-2.21,1.55-4.01c5.05-8.96,8.86-18.78,11.43-29.44
		c0.62-2.52,1.72-3.79,3.33-3.79c2.01,0,3.01,0.95,3.01,2.86c0,0.67-0.36,2.01-1.08,4.01l-5.8,17.15l-4.17,8.27
		c-2.58,5.2-4.43,7.8-5.56,7.8C921.55,544.3,920.87,544.07,920.43,543.64z M927.96,571.03v-37.47l6.18-14.45v51.92
		c0,2.47-1.03,3.71-3.09,3.71C928.99,574.74,927.96,573.5,927.96,571.03z M936.23,572.11c0-1.44,1.03-2.34,3.09-2.71
		c4.33-0.82,7.52-1.54,9.58-2.16l4.25-1.31c1.39-0.47,2.11-0.7,2.16-0.7c1.65,0,2.47,0.88,2.47,2.63c0,0.77-1.25,1.72-3.75,2.86
		c-2.5,1.13-5.29,2.14-8.38,3.01c-3.09,0.87-5.25,1.31-6.49,1.31C937.2,575.05,936.23,574.06,936.23,572.11z M939.4,509.52
		c0-1.65,0.93-2.47,2.78-2.47h44.2c1.85,0,2.78,0.82,2.78,2.47c0,1.65-0.93,2.47-2.78,2.47h-44.2
		C940.32,512,939.4,511.18,939.4,509.52z M940.01,526.91v-5.64c0-3.4,1.88-5.1,5.64-5.1H954v-6.03h4.95v6.03h8.27v-6.03h5.02v6.03
		h8.89c3.66,0,5.49,1.7,5.49,5.1v5.64c0,3.45-1.83,5.17-5.49,5.17h-35.47C941.89,532.09,940.01,530.36,940.01,526.91z M943.1,558.51
		v-17c0-1.95,0.46-3.41,1.39-4.36c0.93-0.95,2.39-1.43,4.4-1.43h29.75c4.38,0,6.36,1.93,5.95,5.79v17c0,1.96-0.46,3.41-1.39,4.36
		c-0.93,0.95-2.45,1.43-4.56,1.43H948.9C944.83,564.31,942.9,562.38,943.1,558.51z M954,527.61v-6.95h-5.95
		c-0.67,0-1.18,0.18-1.55,0.54c-0.36,0.36-0.54,0.88-0.54,1.55v2.86c0,1.34,0.7,2.01,2.09,2.01H954z M978.49,543.98v-2.01
		c0-1.23-0.57-1.85-1.7-1.85h-25.89c-1.13,0-1.7,0.62-1.7,1.85v2.01H978.49z M978.49,551.71v-3.55h-29.28v3.55H978.49z
		 M978.49,558.05v-2.16h-29.28v2.16c0,1.23,0.56,1.85,1.7,1.85h25.89C977.92,559.9,978.49,559.28,978.49,558.05z M967.21,527.61
		v-6.95h-8.27v6.95H967.21z M975.55,572.03c-4.17-1.29-6.26-2.65-6.26-4.1c0-1.7,0.9-2.55,2.7-2.55c0.41,0,1,0.15,1.78,0.46
		c3.4,1.39,8.06,2.55,13.98,3.48c2.01,0.31,3.01,1.23,3.01,2.78c0,1.9-1.06,2.86-3.17,2.86
		C985.91,574.97,981.89,573.99,975.55,572.03z M980.58,525.6v-2.86c0-0.67-0.19-1.19-0.58-1.55c-0.39-0.36-0.92-0.54-1.58-0.54
		h-6.18v6.95h6.18C979.85,527.61,980.58,526.94,980.58,525.6z"/>
	<path class="st6" d="M1055.37,548.7c-8.76-3.71-15.87-8.53-21.33-14.45c-4.95,4.59-11.02,8.55-18.23,11.9
		c-7.26,3.35-11.77,5.02-13.52,5.02c-1.91,0-2.86-0.93-2.86-2.78c0-1.03,0.37-1.83,1.12-2.39c0.75-0.56,1.92-1.06,3.52-1.47
		c9.53-2.47,18.08-6.95,25.65-13.44l2.63-2.47c0.93-0.93,1.78-1.39,2.55-1.39c1.8,0,2.71,0.83,2.71,2.47c0,0.41-0.11,0.8-0.31,1.16
		c8.91,7.78,18.47,12.52,28.67,14.22c1.39,0.21,2.46,0.63,3.21,1.27c0.74,0.65,1.12,1.43,1.12,2.36c0,2.32-1.18,3.48-3.56,3.48
		C1064.67,552.18,1060.88,551.02,1055.37,548.7z M1000.98,534.13c-0.47-0.54-0.7-1.32-0.7-2.36c0-1.7,1.26-2.68,3.78-2.94l2.86-0.23
		l3.4-6.88c0.77-1.55,1.83-2.32,3.17-2.32c2.06,0,3.09,0.8,3.09,2.39c0,0.52-0.23,1.17-0.7,1.97c-0.46,0.8-1.42,2.28-2.86,4.44
		l8.96-1.16c-0.52-0.83-0.9-1.51-1.16-2.05c-0.26-0.54-0.39-0.97-0.39-1.27c0-0.52,0.22-0.97,0.65-1.36
		c0.44-0.39,0.97-0.58,1.58-0.58c0.62,0,1.26,0.31,1.93,0.93c0.67,0.62,1.52,1.65,2.55,3.09c1.8,2.58,2.71,4.2,2.71,4.87
		c0,0.67-0.27,1.28-0.81,1.82c-0.54,0.54-1.14,0.81-1.81,0.81c-0.67,0-1.22-0.19-1.66-0.58c-0.44-0.39-0.86-0.99-1.27-1.81
		l-1.7,0.39l-5.17,1.08c-8.04,1.7-12.85,2.55-14.45,2.55C1002.11,534.95,1001.44,534.67,1000.98,534.13z M1005.38,574.16
		c-0.47-0.49-0.7-1.25-0.7-2.28c0-0.93,0.33-1.62,1-2.08c0.26-0.16,0.76-0.27,1.51-0.35c0.74-0.07,1.47-0.14,2.16-0.19
		c0.7-0.05,1.28-0.08,1.74-0.08c16.9-0.67,31.6-4.35,44.12-11.05c2.42-1.28,3.96-1.93,4.64-1.93c2.37,0,3.55,1.03,3.55,3.09
		c0,1.55-2.47,3.35-7.42,5.41c-16.07,6.8-32.19,10.2-48.37,10.2C1006.59,574.89,1005.84,574.64,1005.38,574.16z M1006.23,556.54
		c-0.41-0.49-0.59-1.2-0.54-2.13c0.05-0.72,0.53-1.3,1.43-1.74c0.9-0.44,2.28-0.84,4.14-1.2c2.57-0.46,6.13-1.55,10.66-3.24
		c3.81-1.44,7.57-3.22,11.28-5.33c1.85-1.08,3.19-1.62,4.02-1.62c1.03,0,1.81,0.27,2.36,0.81s0.76,1.33,0.66,2.36
		c-0.11,1.19-2.68,2.99-7.73,5.41c-4.28,2.06-9.38,3.86-15.3,5.41c-5,1.34-8.01,2.01-9.04,2.01
		C1007.29,557.27,1006.64,557.03,1006.23,556.54z M1006.88,518.37c-0.54-0.54-0.81-1.32-0.81-2.36c0-1.95,1.16-2.94,3.48-2.94h10.28
		l4.33-6.88c0.93-1.44,2.16-2.16,3.71-2.16c0.93,0,1.7,0.27,2.32,0.81c0.62,0.54,0.93,1.17,0.93,1.89c0,0.77-0.45,1.71-1.35,2.82
		c-0.9,1.11-2.13,2.31-3.67,3.59l24.26-0.7l1.93,0.39l4.17,3.63l-47.21,2.63C1008.21,519.16,1007.43,518.91,1006.88,518.37z
		 M1010.13,565.19c-0.44-0.44-0.66-1.02-0.66-1.74c0-1.24,0.54-2.06,1.62-2.47c0.26-0.05,1.11-0.23,2.55-0.54
		c2.11-0.41,3.76-0.75,4.95-1c4.01-0.98,7.87-2.06,11.55-3.25c3.68-1.18,7.43-2.7,11.24-4.56c1.5-0.72,2.72-1.3,3.67-1.74
		c0.95-0.44,1.61-0.65,1.97-0.65c2.16,0.1,3.22,1.13,3.17,3.09c-0.05,0.93-1.03,1.95-2.94,3.05c-1.9,1.11-4.87,2.41-8.89,3.9
		c-8.09,3.04-16.15,5.12-24.18,6.26l-2.32,0.23C1011.15,565.83,1010.57,565.63,1010.13,565.19z M1064.83,533.44
		c-0.59-0.49-1.32-1.33-2.2-2.51l-3.78,0.46l-3.4,0.23c-1.44,0.11-2.57,0.21-3.4,0.31l-5.33,0.54l-5.33,0.46
		c-0.88,0.05-1.56-0.18-2.05-0.7c-0.49-0.51-0.73-1.26-0.73-2.24c0-1.5,1.36-2.32,4.09-2.47h0.7c0.1-0.21,0.51-1.18,1.24-2.94
		c0.72-1.75,1.31-3.14,1.78-4.17c0.41-0.82,0.84-1.43,1.27-1.81c0.44-0.39,0.99-0.58,1.66-0.58c0.98,0,1.75,0.25,2.32,0.74
		c0.57,0.49,0.85,1.09,0.85,1.81c0,0.88-1.13,3.06-3.4,6.57l10.35-0.7l-0.69-0.77c-1.03-1.08-1.55-2.06-1.55-2.94
		c0-1.39,0.82-2.09,2.47-2.09c1.23,0,3.17,1.55,5.79,4.63c2.63,3.14,3.94,5.18,3.94,6.11c0,0.88-0.26,1.56-0.77,2.05
		c-0.52,0.49-1.16,0.73-1.94,0.73C1066.06,534.17,1065.42,533.93,1064.83,533.44z M1057.61,518.18l-4.48-3.63l-8.57-4.4
		c-1.08-0.56-1.62-1.21-1.62-1.93c0-0.72,0.23-1.28,0.7-1.7c0.46-0.41,1-0.62,1.62-0.62c0.77,0,2.2,0.44,4.29,1.31
		c2.08,0.88,4.47,2.11,7.15,3.71c2.94,1.75,5.06,3.13,6.37,4.13c1.31,1,1.94,1.82,1.89,2.43c-0.05,0.93-0.33,1.62-0.85,2.09
		c-0.52,0.46-1.19,0.7-2.01,0.7C1060.85,520.27,1059.36,519.57,1057.61,518.18z"/>
	<path class="st6" d="M1117.18,571.18c0-2.16,1.42-3.25,4.25-3.25l6.49,0.08c1.96,0.05,3.54-0.25,4.75-0.89
		c1.21-0.64,2.02-1.58,2.43-2.82c0.67-1.9,1-3.53,1-4.87c0-1.18-0.75-1.78-2.24-1.78h-33.61c-2.16,0-3.77-0.4-4.83-1.2
		c-1.06-0.8-1.53-2-1.43-3.59c0.21-2.16,0.39-3.78,0.54-4.87c0.05-0.51,0.18-1.28,0.39-2.32c-7.73,3.97-12.18,5.95-13.36,5.95
		c-1.81,0-2.71-0.98-2.71-2.94c0-1.44,1.24-2.6,3.71-3.48c3.4-1.24,7.75-3.19,13.06-5.87l0.16-0.16c0.46-2.99,1.59-4.48,3.4-4.48
		c1.08,0,1.9,0.52,2.47,1.55l9.81-5.95l8.34-0.08l0.07,0.16c-2.42,1.8-5.21,3.72-8.38,5.76c-3.17,2.04-6.04,3.8-8.61,5.29l-1.7,3.01
		l-0.7,5.41c-0.05,0.67,0.13,1.2,0.54,1.58c0.41,0.39,1,0.58,1.78,0.58h33.46c4.17,0,6.26,1.62,6.26,4.87
		c0,3.19-0.49,6.34-1.47,9.43c-0.98,3.04-2.7,5.17-5.17,6.41c-2.37,1.18-7.21,1.78-14.53,1.78
		C1118.57,574.5,1117.18,573.4,1117.18,571.18z M1079.86,530.31c-0.46-0.46-0.7-1.16-0.7-2.09c0-0.93,0.23-1.62,0.7-2.08
		s1.21-0.7,2.24-0.7h22.18v-8.42h-16.92c-1.03,0-1.79-0.22-2.28-0.65c-0.49-0.44-0.73-1.15-0.73-2.13c0-0.93,0.24-1.61,0.73-2.05
		c0.49-0.44,1.25-0.66,2.28-0.66h16.92v-4.17c0-2.01,1-3.01,3.01-3.01c2.06,0,3.09,1,3.09,3.01v4.17h14.06
		c1.08,0,1.85,0.22,2.32,0.66c0.46,0.44,0.7,1.12,0.7,2.05c0,0.98-0.23,1.69-0.7,2.13c-0.46,0.44-1.23,0.65-2.32,0.65h-14.06v8.42
		H1146c2.06,0,3.09,0.93,3.09,2.78c0,1.86-1.03,2.78-3.09,2.78h-63.9C1081.07,531.01,1080.33,530.77,1079.86,530.31z
		 M1099.49,539.35h44.58c2.11,0,3.17,0.93,3.17,2.78s-1.06,2.78-3.17,2.78h-44.58V539.35z M1136.34,508.52
		c1.08-1.13,2.09-1.7,3.01-1.7c2.06,0,3.09,0.93,3.09,2.78c0,1.13-0.98,2.58-2.94,4.33l-3.17,2.94c-3.5,3.24-7.26,6.41-11.28,9.5
		l-8.19-0.16C1123.47,521.27,1129.95,515.37,1136.34,508.52z"/>
</g>
</svg>
